<?xml version="1.0" encoding="UTF-8"?>
<svg id="Layer_2" xmlns="http://www.w3.org/2000/svg" width="434.88" height="434.88" viewBox="0 0 434.88 434.88">
  <defs>
    <style>
      .cls-1 {
        fill: #f5ff65;
      }

      .cls-2 {
        fill: #073b3a;
      }
    </style>
  </defs>
  <g id="Layer_1-2" data-name="Layer_1">
    <g>
      <rect class="cls-2" width="434.88" height="434.88"/>
      <g>
        <path class="cls-1" d="M177.98,233.82v-32.95h6.85v13.82h14.26v-13.82h6.85v32.95h-6.85v-13.82h-14.26v13.82h-6.85ZM223.73,234.34c-4.51,0-7.8-1.08-9.89-3.27-2.09-2.22-3.14-5.34-3.14-9.37s1.05-7.13,3.14-9.31c2.13-2.22,5.42-3.33,9.89-3.33s7.8,1.1,9.89,3.33c2.13,2.19,3.2,5.3,3.2,9.31s-1.05,7.15-3.14,9.37c-2.09,2.19-5.4,3.27-9.95,3.27ZM223.73,228.45c2.2,0,3.76-.49,4.72-1.48.96-1.02,1.42-2.78,1.42-5.28s-.47-4.23-1.42-5.22c-.96-1.02-2.52-1.54-4.72-1.54s-3.73.51-4.66,1.54c-.96.98-1.42,2.74-1.42,5.22s.47,4.25,1.42,5.28c.96.98,2.5,1.48,4.66,1.48ZM255.71,234.34c-1.7,0-3.16-.22-4.41-.67-1.25-.47-2.4-1.18-3.45-2.11l-.35,2.24h-5.93v-34.47h6.85v11.58c.98-.61,2.09-1.08,3.3-1.38,1.21-.3,2.48-.45,3.8-.45,3.45,0,6.16.98,8.17,2.97,2.03,1.95,3.04,5.1,3.04,9.47s-1,7.62-2.98,9.72c-1.97,2.09-4.62,3.13-8.02,3.13l-.02-.04ZM253.8,229.28c2.2,0,3.75-.65,4.62-1.95.92-1.3,1.37-3.25,1.37-5.83s-.49-4.59-1.46-5.69c-.96-1.12-2.48-1.69-4.56-1.69-1.05,0-2.05.16-2.98.45-.92.31-1.7.75-2.34,1.34v11.16c.68.71,1.46,1.26,2.38,1.63.96.37,1.95.57,2.98.57ZM285.64,234.34c-1.7,0-3.16-.22-4.41-.67-1.25-.47-2.4-1.18-3.45-2.11l-.35,2.24h-5.93v-34.47h6.85v11.58c.98-.61,2.09-1.08,3.3-1.38,1.21-.31,2.48-.45,3.8-.45,3.45,0,6.16.98,8.17,2.97,2.03,1.95,3.04,5.1,3.04,9.47s-.99,7.62-2.98,9.72c-1.97,2.09-4.64,3.13-8.02,3.13l-.02-.04ZM283.71,229.28c2.2,0,3.75-.65,4.62-1.95.92-1.3,1.37-3.25,1.37-5.83s-.49-4.59-1.46-5.69c-.96-1.12-2.48-1.69-4.56-1.69-1.05,0-2.05.16-2.98.45-.92.31-1.7.75-2.34,1.34v11.16c.68.71,1.46,1.26,2.38,1.63.96.37,1.95.57,2.98.57ZM308.09,234.34c-2.34,0-4.04-.55-5.13-1.63-1.05-1.08-1.58-2.83-1.58-5.22v-28.15h6.85v27.58c0,.85.18,1.46.51,1.79.33.32.82.45,1.46.45.88,0,1.68-.12,2.38-.35v4.76c-1.29.51-2.79.77-4.51.77h.02ZM319.48,242.84c-1.05,0-1.97-.06-2.79-.2-.82-.1-1.6-.31-2.38-.61v-4.86c.57.2,1.09.33,1.58.41.51.06,1.01.1,1.52.1,1.38,0,2.46-.31,3.2-.96.78-.65,1.56-1.73,2.34-3.27l-10.75-23.86h7.16l7.04,16.48,7-16.48h7.1l-9.48,22.58c-.88,2.11-1.83,3.98-2.89,5.57-1.01,1.63-2.22,2.89-3.61,3.78-1.38.89-3.06,1.34-5.01,1.34l-.04-.02Z"/>
        <path class="cls-1" d="M157.26,227.29v-19.71c0-11.86-9.67-21.5-21.56-21.5h-19.76c-11.89,0-21.56,9.64-21.56,21.5v19.71c0,11.85,9.67,21.5,21.56,21.5h19.76c11.89,0,21.56-9.66,21.56-21.5ZM146.47,229.98c0,4.44-3.63,8.06-8.09,8.06s-8.09-3.62-8.09-8.06,3.63-8.06,8.09-8.06,8.09,3.62,8.09,8.06ZM115.93,239.84c-6.94,0-12.58-5.63-12.58-12.54v-19.71c0-6.92,5.64-12.54,12.58-12.54h19.76c6.94,0,12.58,5.63,12.58,12.54,0,4.24-5.64,7.17-9.88,7.17-8.43,0-15.27,6.83-15.27,15.23,0,4.22-2.97,9.86-7.19,9.86Z"/>
      </g>
    </g>
  </g>
</svg>