<?xml version="1.0" encoding="UTF-8"?>
<svg id="Layer_2" xmlns="http://www.w3.org/2000/svg" width="538.18" height="137.14" viewBox="0 0 538.18 137.14">
  <defs>
    <style>
      .cls-1 {
        fill: #073b3a;
      }
    </style>
  </defs>
  <g id="Layer_1-2" data-name="Layer_1">
    <g>
      <path class="cls-1" d="M182.82,104.4V32.34h14.97v30.22h31.18v-30.22h14.97v72.06h-14.97v-30.22h-31.18v30.22h-14.97ZM282.84,105.51c-9.85,0-17.06-2.37-21.62-7.14-4.56-4.86-6.87-11.67-6.87-20.49s2.3-15.58,6.87-20.36c4.65-4.86,11.86-7.27,21.62-7.27s17.06,2.41,21.62,7.27c4.65,4.78,6.99,11.58,6.99,20.36s-2.3,15.62-6.87,20.49c-4.56,4.78-11.81,7.14-21.75,7.14ZM282.84,92.64c4.82,0,8.23-1.08,10.32-3.23,2.09-2.24,3.11-6.07,3.11-11.54s-1.02-9.25-3.11-11.41c-2.09-2.24-5.5-3.36-10.32-3.36s-8.15,1.12-10.19,3.36c-2.09,2.15-3.11,5.98-3.11,11.41s1.02,9.3,3.11,11.54c2.09,2.15,5.46,3.23,10.19,3.23ZM352.78,105.51c-3.71,0-6.91-.47-9.64-1.46-2.73-1.03-5.25-2.58-7.55-4.61l-.77,4.91h-12.97V28.98h14.97v25.31c2.13-1.33,4.56-2.37,7.21-3.01,2.64-.65,5.42-.99,8.32-.99,7.55,0,13.48,2.15,17.87,6.5,4.44,4.26,6.65,11.15,6.65,20.7s-2.18,16.66-6.53,21.26c-4.31,4.56-10.11,6.84-17.53,6.84l-.04-.09ZM348.6,94.45c4.82,0,8.19-1.42,10.11-4.26,2.01-2.84,2.99-7.1,2.99-12.74s-1.07-10.03-3.2-12.44c-2.09-2.45-5.42-3.7-9.98-3.7-2.3,0-4.48.34-6.52.99-2.01.69-3.71,1.64-5.12,2.93v24.41c1.49,1.55,3.2,2.75,5.2,3.57,2.09.82,4.27,1.25,6.52,1.25ZM418.2,105.51c-3.71,0-6.91-.47-9.64-1.46-2.73-1.03-5.25-2.58-7.55-4.61l-.77,4.91h-12.96V28.98h14.97v25.31c2.13-1.33,4.56-2.37,7.21-3.01,2.64-.69,5.42-.99,8.32-.99,7.55,0,13.48,2.15,17.87,6.5,4.44,4.26,6.65,11.15,6.65,20.7s-2.17,16.66-6.52,21.26c-4.31,4.56-10.15,6.84-17.53,6.84l-.04-.09ZM413.98,94.45c4.82,0,8.19-1.42,10.11-4.26,2.01-2.84,2.98-7.1,2.98-12.74s-1.07-10.03-3.2-12.44c-2.09-2.45-5.42-3.7-9.98-3.7-2.3,0-4.48.34-6.52.99-2.01.69-3.71,1.64-5.12,2.93v24.41c1.49,1.55,3.2,2.75,5.2,3.57,2.09.82,4.26,1.25,6.52,1.25ZM467.29,105.51c-5.12,0-8.83-1.2-11.22-3.57-2.3-2.37-3.45-6.2-3.45-11.41V28.98h14.97v60.3c0,1.85.38,3.18,1.11,3.92.73.69,1.79.99,3.2.99,1.92,0,3.67-.26,5.2-.77v10.42c-2.82,1.12-6.1,1.68-9.85,1.68h.04ZM492.2,124.11c-2.3,0-4.31-.13-6.1-.43-1.79-.22-3.5-.69-5.2-1.33v-10.63c1.24.43,2.39.73,3.46.9,1.11.13,2.22.21,3.33.21,3.03,0,5.37-.69,6.99-2.11,1.71-1.42,3.41-3.79,5.12-7.14l-23.5-52.17h15.65l15.4,36.03,15.31-36.03h15.52l-20.73,49.37c-1.92,4.61-4.01,8.69-6.31,12.18-2.22,3.57-4.86,6.33-7.89,8.27-3.03,1.94-6.7,2.93-10.96,2.93l-.09-.04Z"/>
      <path class="cls-1" d="M137.5,90.12v-43.1C137.5,21.08,116.36,0,90.36,0h-43.21C21.14,0,0,21.08,0,47.02v43.1c0,25.9,21.14,47.02,47.14,47.02h43.21c26.01,0,47.14-21.12,47.14-47.02ZM113.93,96c0,9.72-7.94,17.63-17.68,17.63s-17.68-7.91-17.68-17.63,7.94-17.63,17.68-17.63,17.68,7.91,17.68,17.63ZM47.14,117.54c-15.16,0-27.5-12.3-27.5-27.43v-43.1c0-15.12,12.34-27.43,27.5-27.43h43.21c15.16,0,27.5,12.3,27.5,27.43,0,9.26-12.34,15.67-21.61,15.67-18.43,0-33.39,14.93-33.39,33.3,0,9.23-6.49,21.55-15.71,21.55Z"/>
    </g>
  </g>
</svg>