<?xml version="1.0" encoding="UTF-8"?>
<svg id="Layer_2" xmlns="http://www.w3.org/2000/svg" width="134.36" height="134" viewBox="0 0 134.36 134">
  <defs>
    <style>
      .cls-1 {
        fill: #073b3a;
      }
    </style>
  </defs>
  <g id="Layer_1-2" data-name="Layer_1">
    <path class="cls-1" d="M134.36,88.06v-42.11C134.36,20.6,113.7,0,88.29,0h-42.23C20.65,0,0,20.6,0,45.94v42.11c0,25.31,20.65,45.94,46.06,45.94h42.23c25.41,0,46.06-20.64,46.06-45.94ZM111.32,93.8c0,9.49-7.75,17.23-17.27,17.23s-17.27-7.73-17.27-17.23,7.75-17.23,17.27-17.23,17.27,7.73,17.27,17.23ZM46.06,114.86c-14.82,0-26.87-12.02-26.87-26.8v-42.11c0-14.78,12.05-26.8,26.87-26.8h42.23c14.82,0,26.87,12.02,26.87,26.8,0,9.05-12.06,15.31-21.11,15.31-18,0-32.63,14.59-32.63,32.54,0,9.02-6.34,21.06-15.36,21.06Z"/>
  </g>
</svg>