<?xml version="1.0" encoding="UTF-8"?>
<svg id="Layer_2" xmlns="http://www.w3.org/2000/svg" width="435" height="435" viewBox="0 0 435 435">
  <defs>
    <style>
      .cls-1 {
        fill: #f5ff65;
      }

      .cls-2 {
        fill: #073b3a;
      }
    </style>
  </defs>
  <g id="Layer_1-2" data-name="Layer_1">
    <g>
      <rect class="cls-2" width="435" height="435"/>
      <path class="cls-1" d="M299.52,243.21v-51.42c0-30.94-25.22-56.09-56.24-56.09h-51.56c-31.03,0-56.24,25.15-56.24,56.09v51.42c0,30.9,25.22,56.09,56.24,56.09h51.56c31.03,0,56.24-25.19,56.24-56.09ZM271.4,250.22c0,11.59-9.47,21.03-21.09,21.03s-21.09-9.44-21.09-21.03,9.47-21.03,21.09-21.03,21.09,9.44,21.09,21.03ZM191.72,275.93c-18.09,0-32.81-14.68-32.81-32.72v-51.42c0-18.04,14.72-32.72,32.81-32.72h51.56c18.09,0,32.81,14.68,32.81,32.72,0,11.05-14.72,18.7-25.78,18.7-21.98,0-39.84,17.81-39.84,39.73,0,11.01-7.74,25.71-18.75,25.71Z"/>
    </g>
  </g>
</svg>